<svg width="75" height="73" viewBox="0 0 75 73" fill="none" xmlns="http://www.w3.org/2000/svg">
<path d="M17.6272 56.8927C17.0021 56.7677 16.502 56.6426 15.877 56.3926C15.2519 56.1426 14.7518 56.0176 14.2518 55.7675C13.1266 55.2675 12.1265 54.6424 11.1264 53.8923C9.12612 52.5171 7.50092 50.6419 6.25077 48.3916C5.00062 46.2664 4.25052 43.7661 4.12551 41.3908C4.00049 40.1406 4.12551 39.0155 4.25052 37.7653C4.37554 37.1402 4.50055 36.6402 4.62557 36.0151C4.75058 35.39 5.00062 34.89 5.12563 34.2649L5.25065 36.0151C5.25065 36.6402 5.37566 37.1402 5.50068 37.7653C5.62569 38.8905 5.87572 40.0156 6.12575 41.0157C6.62582 43.141 7.37591 45.1412 8.50105 47.0165C9.62618 48.8917 10.8763 50.6419 12.5015 52.2671C13.2516 53.0172 14.1267 53.7673 15.0018 54.5174C15.3769 54.8924 15.877 55.2675 16.377 55.6425L17.6272 56.8927ZM17.2521 61.3932C16.8771 61.6433 16.377 61.7683 15.877 61.8933C15.3769 62.0183 15.0018 62.1433 14.5018 62.1433C13.6267 62.2683 12.6266 62.3933 11.6264 62.2683C9.7512 62.1433 7.75095 61.6433 6.12575 60.7681C4.37554 59.893 2.87535 58.5179 1.87523 56.8927C1.37517 56.1426 0.875108 55.2675 0.500062 54.3924C0.375046 54.0173 0.250031 53.5173 0.125015 53.0172C0.125015 52.6421 0 52.2671 0 51.767C0.375046 52.1421 0.625077 52.5171 0.875108 52.7672C1.25015 53.1422 1.50018 53.5173 1.75022 53.7673C2.37529 54.3924 2.87535 55.0174 3.50043 55.5175C4.75058 56.6426 6.00074 57.6428 7.50092 58.3929C8.87609 59.1429 10.5013 59.768 12.0015 60.2681C12.7516 60.5181 13.6267 60.6431 14.5018 60.8932C14.8768 61.0182 15.3769 61.0182 15.7519 61.1432C16.377 61.2682 16.7521 61.2682 17.2521 61.3932ZM45.5056 0.635743C46.1307 0.760758 46.6307 1.01079 47.2558 1.26082C47.8809 1.51085 48.381 1.76088 48.881 2.01091C50.0061 2.63599 51.0063 3.26107 52.0064 4.01116C54.0066 5.51134 55.6318 7.51159 56.757 9.76187C57.8821 12.0121 58.5072 14.5125 58.5072 16.8877C58.5072 18.1379 58.3822 19.263 58.1322 20.5132C58.0071 21.1383 57.8821 21.6383 57.6321 22.2634C57.3821 22.8885 57.257 23.3885 57.007 23.8886L56.882 22.1384C56.882 21.5133 56.882 21.0133 56.757 20.3882L56.3819 17.0128C56.0069 14.8875 55.2568 12.7622 54.2567 10.762C53.2566 8.76174 52.0064 7.01153 50.5062 5.38633C49.7561 4.51122 48.881 3.76113 48.1309 2.88602C47.7559 2.51097 47.2558 2.13593 46.7558 1.76088L45.5056 0.635743ZM56.3819 0.135681C56.882 0.260697 57.257 0.385712 57.6321 0.635743C58.0071 0.760758 58.5072 1.01079 58.8822 1.26082C59.6323 1.76088 60.3824 2.26094 61.1325 2.88602C62.5077 4.13617 63.6328 5.63636 64.2579 7.38657C65.008 9.13679 65.258 11.012 65.008 12.8873C64.883 13.7624 64.6329 14.6375 64.3829 15.5126C64.2579 15.8876 64.0079 16.3877 63.8829 16.7627C63.6328 17.1378 63.5078 17.5128 63.1328 17.8879V16.6377V15.3876C63.1328 14.5125 63.0078 13.7624 63.0078 13.0123C62.7577 11.3871 62.5077 9.88688 61.8826 8.51171C61.2575 7.01153 60.5074 5.76137 59.6323 4.3862C59.1323 3.76113 58.6322 3.01104 58.1322 2.38596C57.8821 2.01091 57.6321 1.76088 57.257 1.38584C57.007 0.760758 56.632 0.385712 56.3819 0.135681Z" fill="#42ADE2"/>
<path d="M10.0013 18.763C7.50097 19.8881 6.62586 22.8885 7.751 25.3888L23.5029 58.2678L32.254 54.1423L16.5021 21.1383C15.3769 18.6379 12.5016 17.5128 10.0013 18.763ZM51.3814 44.8912L60.6325 40.5156L42.6303 3.01102C41.3801 0.510715 38.3798 -0.614423 35.7544 0.635731C33.2541 1.88588 32.129 4.88625 33.3792 7.51158L51.3814 44.8912Z" fill="#FFDD67"/>
<path d="M35.8794 0.510717C35.6294 0.635732 35.3794 0.760747 35.1293 1.01078C37.5046 0.385701 40.0049 1.51084 41.1301 3.76112L59.1323 41.2657L60.7575 40.5156L42.7553 3.01102C41.5051 0.385701 38.5047 -0.739437 35.8794 0.510717Z" fill="#EBA352"/>
<path d="M32.2539 54.0173L41.8801 49.3917L23.5029 11.137C22.2527 8.51167 19.0023 7.26152 16.377 8.51167C13.7517 9.76182 12.6265 13.0122 13.8767 15.6375L32.2539 54.0173Z" fill="#FFDD67"/>
<path d="M16.377 8.63674C16.127 8.76176 15.8769 8.88678 15.6269 9.13681C18.0022 8.51173 20.7525 9.63687 21.8777 12.0122L33.2541 35.8901L36.0044 37.5153L23.5029 11.2621C22.2527 8.51173 19.1273 7.38659 16.377 8.63674Z" fill="#EBA352"/>
<path d="M40.38 46.3914L50.0062 41.7658L31.6289 3.51111C30.3787 0.885791 27.1284 -0.364363 24.503 1.01081C21.8777 2.26096 20.7526 5.51136 22.0027 8.13668L40.38 46.3914Z" fill="#FFDD67"/>
<path d="M24.503 0.885783C24.253 1.0108 24.003 1.26083 23.7529 1.38584C26.1282 0.760767 28.8786 1.88591 30.0037 4.2612L42.8803 31.2645L45.6306 32.8897L31.6289 3.51111C30.3788 0.760768 27.1284 -0.364371 24.503 0.885783ZM10.0013 18.763C9.75122 18.888 9.50119 19.013 9.25116 19.263C11.5014 18.638 13.8767 19.7631 14.8769 22.0134L24.253 41.6408L27.0033 43.266L16.5021 21.2633C15.3769 18.638 12.5016 17.5128 10.0013 18.763Z" fill="#EBA352"/>
<path d="M73.509 15.0125C70.1336 12.3872 64.6329 15.2625 61.8826 24.2636C60.0074 30.5144 59.7574 32.3896 55.7569 34.2649L53.5066 29.6393C53.5066 29.6393 18.0022 46.7664 19.3774 49.5168C19.3774 49.5168 23.6279 62.7684 30.8788 68.8941C41.6301 78.1453 66.7582 68.2691 67.8834 44.3911C68.5084 30.5144 77.1345 17.8879 73.509 15.0125Z" fill="#FFDD67"/>
<path d="M73.509 15.0125C72.884 14.5125 72.1339 14.2624 71.3838 14.1374C71.5088 14.2624 71.7588 14.2624 71.8838 14.3874C75.6343 17.2628 71.7588 23.8886 69.6336 29.8893C67.8834 34.6399 66.3832 39.5155 66.6332 44.2661C67.6333 65.0187 46.7558 74.8949 34.2542 71.1444C46.5057 76.2701 69.2585 66.5189 68.2584 44.8912C68.0084 40.1406 69.3835 35.515 71.2588 30.5144C73.259 24.5137 77.1345 17.8879 73.509 15.0125Z" fill="#EBA352"/>
<path d="M56.882 33.7648C49.1311 34.6399 37.7547 45.7663 45.7557 57.8928C39.8799 45.6413 49.5061 37.3903 55.6319 34.5149C56.2569 34.0149 56.882 33.7648 56.882 33.7648Z" fill="#EBA352"/>
</svg>
