<svg class="stars absolute top-0 left-0" width="100%" height="100%" fill="#fff" preserveAspectRatio="none">
  <circle class="star" cx="93.09%" cy="28.91%" r="1.1"></circle>
  <circle class="star" cx="93.93%" cy="53.04%" r="1"></circle>
  <circle class="star" cx="62.81%" cy="13.26%" r="0.7"></circle>
  <circle class="star" cx="27.46%" cy="75.92%" r="1.5"></circle>
  <circle class="star" cx="1.03%" cy="72.84%" r="0.5"></circle>
  <circle class="star" cx="8.65%" cy="28.7%" r="1.1"></circle>
  <circle class="star" cx="57.47%" cy="47.33%" r="1.4"></circle>
  <circle class="star" cx="3.01%" cy=b"52.06%" r="0.7"></circle>
  <circle class="star" cx="87.94%" cy="41.85%" r="1.4"></circle>
  <circle class="star" cx="47.92%" cy="49.55%" r="0.8"></circle>
  <circle class="star" cx="51.5%" cy="86.28%" r="1.4"></circle>
  <circle class="star" cx="40.79%" cy="7.35%" r="1.4"></circle>
  <circle class="star" cx="37.61%" cy="84.31%" r="0.6"></circle>
  <circle class="star" cx="1.71%" cy="40.05%" r="0.7"></circle>
  <circle class="star" cx="82.41%" cy="18.29%" r="1.3"></circle>
  <circle class="star" cx="85.35%" cy="63.09%" r="0.6"></circle>
  <circle class="star" cx="35.29%" cy="83.43%" r="1.4"></circle>
  <circle class="star" cx="36.01%" cy="43.78%" r="0.7"></circle>
  <circle class="star" cx="92.01%" cy="20.69%" r="0.9"></circle>
  <circle class="star" cx="91.18%" cy="97.56%" r="1.3"></circle>
  <circle class="star" cx="59.64%" cy="13.55%" r="0.6"></circle>
  <circle class="star" cx="93.57%" cy="24.39%" r="1.1"></circle>
  <circle class="star" cx="21.87%" cy="19.49%" r="0.6"></circle>
  <circle class="star" cx="44.04%" cy="46.1%" r="0.7"></circle>
  <circle class="star" cx="74.75%" cy="6.08%" r="1.2"></circle>
  <circle class="star" cx="46.45%" cy="87.07%" r="1.2"></circle>
  <circle class="star" cx="91.39%" cy="0.41%" r="0.8"></circle>
  <circle class="star" cx="60.83%" cy="0.59%" r="1"></circle>
  <circle class="star" cx="88.74%" cy="67.83%" r="1.4"></circle>
  <circle class="star" cx="45.28%" cy="59.45%" r="1.3"></circle>
  <circle class="star" cx="5.38%" cy="5.04%" r="1.1"></circle>
  <circle class="star" cx="19.42%" cy="80.83%" r="0.7"></circle>
  <circle class="star" cx="55.89%" cy="4.19%" r="1.3"></circle>
  <circle class="star" cx="78.08%" cy="80.88%" r="0.5"></circle>
  <circle class="star" cx="35.49%" cy="55.38%" r="0.9"></circle>
  <circle class="star" cx="45.62%" cy="96.42%" r="0.8"></circle>
  <circle class="star" cx="40.55%" cy="63.68%" r="0.6"></circle>
  <circle class="star" cx="38.53%" cy="7.64%" r="0.7"></circle>
  <circle class="star" cx="56.13%" cy="83.12%" r="1.3"></circle>
  <circle class="star" cx="11.23%" cy="93.93%" r="0.7"></circle>
  <circle class="star" cx="71.78%" cy="60.31%" r="1.2"></circle>
  <circle class="star" cx="89.13%" cy="57.64%" r="0.6"></circle>
  <circle class="star" cx="68.43%" cy="0.13%" r="1.1"></circle>
  <circle class="star" cx="47.45%" cy="60.83%" r="1.1"></circle>
  <circle class="star" cx="86.45%" cy="42.94%" r="1.3"></circle>
  <circle class="star" cx="12.45%" cy="19.58%" r="1.3"></circle>
  <circle class="star" cx="67.1%" cy="85.89%" r="1.1"></circle>
  <circle class="star" cx="39.28%" cy="79.6%" r="1.3"></circle>
  <circle class="star" cx="31.46%" cy="4%" r="0.6"></circle>
  <circle class="star" cx="39.13%" cy="2.58%" r="1.4"></circle>
  <circle class="star" cx="22.49%" cy="97.12%" r="1.3"></circle>
  <circle class="star" cx="13.19%" cy="74.01%" r="1.4"></circle>
  <circle class="star" cx="5.05%" cy="30.68%" r="1.1"></circle>
  <circle class="star" cx="88.88%" cy="30.04%" r="1.5"></circle>
  <circle class="star" cx="70.83%" cy="68.62%" r="1.4"></circle>
  <circle class="star" cx="4.84%" cy="32.53%" r="0.5"></circle>
  <circle class="star" cx="56.62%" cy="93.76%" r="0.8"></circle>
  <circle class="star" cx="50.62%" cy="65.64%" r="1.4"></circle>
  <circle class="star" cx="65.03%" cy="46.4%" r="0.9"></circle>
  <circle class="star" cx="5.3%" cy="1.12%" r="1.2"></circle>
  <circle class="star" cx="9.73%" cy="25.86%" r="0.7"></circle>
  <circle class="star" cx="95.55%" cy="19.15%" r="0.9"></circle>
  <circle class="star" cx="27.29%" cy="20.26%" r="1"></circle>
  <circle class="star" cx="38.04%" cy="59.7%" r="0.5"></circle>
  <circle class="star" cx="82.88%" cy="84.08%" r="1.1"></circle>
  <circle class="star" cx="71.33%" cy="92.83%" r="1.2"></circle>
  <circle class="star" cx="31.38%" cy="6.5%" r="1.3"></circle>
  <circle class="star" cx="7.25%" cy="14.67%" r="1.2"></circle>
  <circle class="star" cx="46.89%" cy="61.81%" r="0.6"></circle>
  <circle class="star" cx="98.77%" cy="46.59%" r="1.3"></circle>
  <circle class="star" cx="80.88%" cy="41.22%" r="0.8"></circle>
  <circle class="star" cx="82.38%" cy="35.39%" r="0.6"></circle>
  <circle class="star" cx="82.79%" cy="75.14%" r="0.9"></circle>
  <circle class="star" cx="54.23%" cy="91.91%" r="1.3"></circle>
  <circle class="star" cx="49.43%" cy="63.06%" r="0.6"></circle>
  <circle class="star" cx="52.76%" cy="89.84%" r="0.6"></circle>
  <circle class="star" cx="16.46%" cy="94.35%" r="0.8"></circle>
  <circle class="star" cx="64.26%" cy="10.77%" r="1.5"></circle>
  <circle class="star" cx="6.36%" cy="36.14%" r="1"></circle>
  <circle class="star" cx="51.67%" cy="22.63%" r="0.8"></circle>
  <circle class="star" cx="64.33%" cy="20.96%" r="0.8"></circle>
  <circle class="star" cx="17.88%" cy="78.69%" r="0.8"></circle>
  <circle class="star" cx="25.02%" cy="89.35%" r="0.8"></circle>
  <circle class="star" cx="59.57%" cy="48.46%" r="1"></circle>
  <circle class="star" cx="51.19%" cy="62.88%" r="1.2"></circle>
  <circle class="star" cx="68.95%" cy="76.34%" r="1.2"></circle>
  <circle class="star" cx="59.25%" cy="70.63%" r="0.7"></circle>
  <circle class="star" cx="26.47%" cy="37.58%" r="0.5"></circle>
  <circle class="star" cx="40.67%" cy="99.68%" r="0.6"></circle>
  <circle class="star" cx="33.38%" cy="55.64%" r="1.1"></circle>
  <circle class="star" cx="13.14%" cy="31.56%" r="1"></circle>
  <circle class="star" cx="40.44%" cy="68.51%" r="0.6"></circle>
  <circle class="star" cx="46.78%" cy="80.52%" r="0.6"></circle>
  <circle class="star" cx="56.15%" cy="4.1%" r="1.2"></circle>
  <circle class="star" cx="43.38%" cy="38.95%" r="0.5"></circle>
  <circle class="star" cx="92.87%" cy="65.48%" r="1.1"></circle>
  <circle class="star" cx="35.92%" cy="31.96%" r="0.5"></circle>
  <circle class="star" cx="2.96%" cy="17.75%" r="0.9"></circle>
  <circle class="star" cx="20.93%" cy="2.4%" r="0.9"></circle>
  <circle class="star" cx="6.94%" cy="75.98%" r="1.1"></circle>
  <circle class="star" cx="4.77%" cy="10.87%" r="0.6"></circle>
  <circle class="star" cx="44.62%" cy="43.25%" r="1"></circle>
  <circle class="star" cx="19.96%" cy="45.73%" r="0.9"></circle>
  <circle class="star" cx="20.77%" cy="72.61%" r="0.6"></circle>
  <circle class="star" cx="62.66%" cy="47.83%" r="0.8"></circle>
  <circle class="star" cx="77.52%" cy="51.56%" r="1.4"></circle>
  <circle class="star" cx="94.01%" cy="33.1%" r="1.3"></circle>
  <circle class="star" cx="43.19%" cy="36.77%" r="1.2"></circle>
  <circle class="star" cx="73.52%" cy="62.29%" r="1.2"></circle>
  <circle class="star" cx="88.27%" cy="95.84%" r="1.5"></circle>
  <circle class="star" cx="30.73%" cy="26.37%" r="0.9"></circle>
  <circle class="star" cx="88.53%" cy="48.46%" r="1.3"></circle>
  <circle class="star" cx="3.27%" cy="22.89%" r="0.7"></circle>
  <circle class="star" cx="30.18%" cy="76.63%" r="1.2"></circle>
  <circle class="star" cx="81.61%" cy="26.31%" r="1"></circle>
  <circle class="star" cx="89.01%" cy="2.52%" r="1.1"></circle>
  <circle class="star" cx="83.66%" cy="50.08%" r="0.7"></circle>
  <circle class="star" cx="67.88%" cy="68.51%" r="0.6"></circle>
  <circle class="star" cx="17.81%" cy="88.03%" r="0.6"></circle>
  <circle class="star" cx="86.44%" cy="49.54%" r="1.1"></circle>
  <circle class="star" cx="7.66%" cy="31.33%" r="1.2"></circle>
  <circle class="star" cx="14.03%" cy="40.99%" r="0.7"></circle>
  <circle class="star" cx="4.82%" cy="58.94%" r="1.4"></circle>
  <circle class="star" cx="8.97%" cy="54.32%" r="0.9"></circle>
  <circle class="star" cx="82.4%" cy="64.89%" r="0.9"></circle>
  <circle class="star" cx="90.6%" cy="74.21%" r="1"></circle>
  <circle class="star" cx="53.22%" cy="94.19%" r="1.2"></circle>
  <circle class="star" cx="12.26%" cy="62.16%" r="0.7"></circle>
  <circle class="star" cx="58.33%" cy="37.77%" r="0.8"></circle>
  <circle class="star" cx="12.78%" cy="80.35%" r="0.8"></circle>
  <circle class="star" cx="96.46%" cy="44%" r="0.9"></circle>
  <circle class="star" cx="63.17%" cy="5.53%" r="0.7"></circle>
  <circle class="star" cx="68.55%" cy="1.41%" r="1"></circle>
  <circle class="star" cx="26.29%" cy="54.44%" r="0.5"></circle>
  <circle class="star" cx="72.31%" cy="79.46%" r="1.4"></circle>
  <circle class="star" cx="18.53%" cy="15.89%" r="1.5"></circle>
  <circle class="star" cx="99.34%" cy="27.94%" r="1.1"></circle>
  <circle class="star" cx="97.95%" cy="8.44%" r="1.1"></circle>
  <circle class="star" cx="10.55%" cy="72.26%" r="0.8"></circle>
  <circle class="star" cx="30.17%" cy="20.52%" r="1.2"></circle>
  <circle class="star" cx="59.12%" cy="38.48%" r="0.9"></circle>
  <circle class="star" cx="7.45%" cy="66.74%" r="1.1"></circle>
  <circle class="star" cx="17.92%" cy="47.25%" r="1.1"></circle>
  <circle class="star" cx="99.89%" cy="67.98%" r="0.6"></circle>
  <circle class="star" cx="85.89%" cy="53.19%" r="1.3"></circle>
  <circle class="star" cx="3.76%" cy="53.84%" r="0.8"></circle>
  <circle class="star" cx="71.56%" cy="68.02%" r="0.6"></circle>
  <circle class="star" cx="83.52%" cy="24.87%" r="0.7"></circle>
  <circle class="star" cx="71.46%" cy="56.49%" r="0.8"></circle>
  <circle class="star" cx="80.14%" cy="45.97%" r="0.5"></circle>
  <circle class="star" cx="32.5%" cy="36.03%" r="1.5"></circle>
  <circle class="star" cx="39.51%" cy="2.51%" r="1.3"></circle>
  <circle class="star" cx="22.79%" cy="88.83%" r="0.6"></circle>
  <circle class="star" cx="29.09%" cy="14.76%" r="0.6"></circle>
  <circle class="star" cx="39.67%" cy="36.79%" r="1.3"></circle>
  <circle class="star" cx="17.21%" cy="3.35%" r="1.3"></circle>
  <circle class="star" cx="73.57%" cy="90.11%" r="0.5"></circle>
  <circle class="star" cx="78.36%" cy="67.23%" r="0.6"></circle>
  <circle class="star" cx="53.3%" cy="95.82%" r="1.4"></circle>
  <circle class="star" cx="27.57%" cy="65.98%" r="1"></circle>
  <circle class="star" cx="7.42%" cy="6.41%" r="0.6"></circle>
  <circle class="star" cx="11.52%" cy="33.71%" r="1.1"></circle>
  <circle class="star" cx="53.62%" cy="31.76%" r="0.8"></circle>
  <circle class="star" cx="74.44%" cy="99.44%" r="1.2"></circle>
  <circle class="star" cx="86%" cy="55.28%" r="0.6"></circle>
  <circle class="star" cx="36.07%" cy="26.58%" r="0.7"></circle>
  <circle class="star" cx="50.25%" cy="1.92%" r="0.8"></circle>
  <circle class="star" cx="83.03%" cy="91.89%" r="0.7"></circle>
  <circle class="star" cx="41.7%" cy="32%" r="1.5"></circle>
  <circle class="star" cx="83.03%" cy="29.36%" r="1.3"></circle>
  <circle class="star" cx="25.01%" cy="63.63%" r="0.6"></circle>
  <circle class="star" cx="6.37%" cy="61.1%" r="1"></circle>
  <circle class="star" cx="32.45%" cy="50.44%" r="0.9"></circle>
  <circle class="star" cx="60.15%" cy="63.95%" r="1.2"></circle>
  <circle class="star" cx="23.82%" cy="34.32%" r="1.4"></circle>
  <circle class="star" cx="31.9%" cy="29.83%" r="0.6"></circle>
  <circle class="star" cx="38.44%" cy="85.48%" r="0.9"></circle>
  <circle class="star" cx="92.71%" cy="85.64%" r="0.5"></circle>
  <circle class="star" cx="84.67%" cy="77.08%" r="0.6"></circle>
  <circle class="star" cx="24.47%" cy="36.22%" r="1"></circle>
  <circle class="star" cx="23.69%" cy="37.92%" r="0.9"></circle>
  <circle class="star" cx="24.3%" cy="1.53%" r="0.9"></circle>
  <circle class="star" cx="88.89%" cy="31.37%" r="0.6"></circle>
  <circle class="star" cx="21.38%" cy="91.51%" r="1.5"></circle>
  <circle class="star" cx="16.76%" cy="86.95%" r="1"></circle>
  <circle class="star" cx="95.2%" cy="19.91%" r="0.9"></circle>
  <circle class="star" cx="1.55%" cy="34.15%" r="1.4"></circle>
  <circle class="star" cx="41.54%" cy="72.54%" r="1.4"></circle>
  <circle class="star" cx="93.58%" cy="9.24%" r="0.8"></circle>
  <circle class="star" cx="53.54%" cy="63.77%" r="0.6"></circle>
  <circle class="star" cx="77.72%" cy="0.68%" r="1.1"></circle>
  <circle class="star" cx="54.91%" cy="41.67%" r="1.3"></circle>
  <circle class="star" cx="32.31%" cy="89.96%" r="1.2"></circle>
  <circle class="star" cx="8.26%" cy="80.87%" r="0.6"></circle>
  <circle class="star" cx="81.86%" cy="21.68%" r="1"></circle>
  <circle class="star" cx="92.74%" cy="10.32%" r="0.8"></circle>
  <circle class="star" cx="56.41%" cy="28.74%" r="1.1"></circle>
  <circle class="star" cx="34.72%" cy="43.78%" r="0.7"></circle>
  <circle class="star" cx="94.13%" cy="48.47%" r="0.8"></circle>
  <circle class="star" cx="6.52%" cy="87.88%" r="0.7"></circle>
</svg>
