<svg className="stars absolute top-0 left-0" width="100%" height="100%" fill="#fff" preserveAspectRatio="none">
  <circle className="star" cx="4.2%" cy="12.89%" r="1.5"></circle>
  <circle className="star" cx="57.92%" cy="16.85%" r="0.8"></circle>
  <circle className="star" cx="44.23%" cy="68.05%" r="0.9"></circle>
  <circle className="star" cx="87.36%" cy="95.36%" r="0.9"></circle>
  <circle className="star" cx="32.55%" cy="74.54%" r="0.5"></circle>
  <circle className="star" cx="51.95%" cy="38.96%" r="0.6"></circle>
  <circle className="star" cx="0.82%" cy="8.41%" r="0.7"></circle>
  <circle className="star" cx="27.89%" cy="85.45%" r="0.8"></circle>
  <circle className="star" cx="52.41%" cy="85.81%" r="0.6"></circle>
  <circle className="star" cx="79.1%" cy="77.74%" r="0.7"></circle>
  <circle className="star" cx="36.09%" cy="31.58%" r="1.2"></circle>
  <circle className="star" cx="99.25%" cy="43.08%" r="0.5"></circle>
  <circle className="star" cx="37%" cy="74.12%" r="0.7"></circle>
  <circle className="star" cx="10.71%" cy="32.77%" r="1.3"></circle>
  <circle className="star" cx="25.59%" cy="61.21%" r="0.9"></circle>
  <circle className="star" cx="86.69%" cy="91.59%" r="1.4"></circle>
  <circle className="star" cx="47.51%" cy="87.55%" r="1"></circle>
  <circle className="star" cx="26.78%" cy="89.33%" r="0.9"></circle>
  <circle className="star" cx="96.57%" cy="13.79%" r="1.4"></circle>
  <circle className="star" cx="38.97%" cy="82.36%" r="1.3"></circle>
  <circle className="star" cx="69.77%" cy="68.83%" r="1.5"></circle>
  <circle className="star" cx="8.03%" cy="36.73%" r="1.3"></circle>
  <circle className="star" cx="8.67%" cy="49.67%" r="0.8"></circle>
  <circle className="star" cx="74.31%" cy="10.84%" r="0.5"></circle>
  <circle className="star" cx="15%" cy="82.75%" r="1.2"></circle>
  <circle className="star" cx="96.48%" cy="91.29%" r="0.9"></circle>
  <circle className="star" cx="58.29%" cy="46.94%" r="0.5"></circle>
  <circle className="star" cx="8.73%" cy="68.71%" r="1.5"></circle>
  <circle className="star" cx="66.35%" cy="87.05%" r="0.6"></circle>
  <circle className="star" cx="29.34%" cy="64.19%" r="1.1"></circle>
  <circle className="star" cx="12.01%" cy="87.31%" r="1.2"></circle>
  <circle className="star" cx="30.55%" cy="24.9%" r="1.4"></circle>
  <circle className="star" cx="81.68%" cy="23.01%" r="0.6"></circle>
  <circle className="star" cx="62.67%" cy="31.49%" r="0.8"></circle>
  <circle className="star" cx="80.49%" cy="7.45%" r="0.8"></circle>
  <circle className="star" cx="27.25%" cy="73.4%" r="1.1"></circle>
  <circle className="star" cx="50.78%" cy="7.82%" r="1.3"></circle>
  <circle className="star" cx="78.62%" cy="70.16%" r="1.5"></circle>
  <circle className="star" cx="16.02%" cy="21.82%" r="1.4"></circle>
  <circle className="star" cx="7.88%" cy="7.56%" r="1.4"></circle>
  <circle className="star" cx="69.21%" cy="18.44%" r="1.2"></circle>
  <circle className="star" cx="84.61%" cy="87.04%" r="1"></circle>
  <circle className="star" cx="98.83%" cy="62.33%" r="1.4"></circle>
  <circle className="star" cx="24.8%" cy="95.26%" r="1.1"></circle>
  <circle className="star" cx="0.78%" cy="11.43%" r="1.2"></circle>
  <circle className="star" cx="85.11%" cy="19.26%" r="1"></circle>
  <circle className="star" cx="56.99%" cy="32.62%" r="0.8"></circle>
  <circle className="star" cx="6.31%" cy="70.44%" r="1"></circle>
  <circle className="star" cx="69.12%" cy="19.36%" r="1"></circle>
  <circle className="star" cx="2.68%" cy="25.94%" r="1.4"></circle>
  <circle className="star" cx="63.05%" cy="88.17%" r="0.8"></circle>
  <circle className="star" cx="78.17%" cy="24.84%" r="0.7"></circle>
  <circle className="star" cx="63.71%" cy="69.48%" r="0.9"></circle>
  <circle className="star" cx="72.01%" cy="91.01%" r="1.5"></circle>
  <circle className="star" cx="34.42%" cy="68.2%" r="1"></circle>
  <circle className="star" cx="43.4%" cy="84.16%" r="1.3"></circle>
  <circle className="star" cx="23.05%" cy="96.34%" r="0.8"></circle>
  <circle className="star" cx="97.1%" cy="44.85%" r="1.3"></circle>
  <circle className="star" cx="56.98%" cy="8.81%" r="1.2"></circle>
  <circle className="star" cx="23.09%" cy="57.01%" r="0.7"></circle>
  <circle className="star" cx="64.76%" cy="31.09%" r="0.6"></circle>
  <circle className="star" cx="72.78%" cy="28.36%" r="1.4"></circle>
  <circle className="star" cx="84.51%" cy="23.3%" r="0.7"></circle>
  <circle className="star" cx="68.26%" cy="82.38%" r="1.4"></circle>
  <circle className="star" cx="34.71%" cy="78.61%" r="0.9"></circle>
  <circle className="star" cx="72.95%" cy="48.68%" r="1"></circle>
  <circle className="star" cx="17.04%" cy="25.52%" r="0.9"></circle>
  <circle className="star" cx="40.92%" cy="74.5%" r="1.2"></circle>
  <circle className="star" cx="33.94%" cy="71.81%" r="0.6"></circle>
  <circle className="star" cx="86.75%" cy="31.78%" r="1.4"></circle>
  <circle className="star" cx="41.2%" cy="89.3%" r="0.7"></circle>
  <circle className="star" cx="64.23%" cy="48.47%" r="0.9"></circle>
  <circle className="star" cx="87.97%" cy="68.35%" r="1.2"></circle>
  <circle className="star" cx="59.02%" cy="81.81%" r="1.1"></circle>
  <circle className="star" cx="75.84%" cy="82.16%" r="0.5"></circle>
  <circle className="star" cx="92.66%" cy="61.85%" r="0.8"></circle>
  <circle className="star" cx="44.28%" cy="66.86%" r="1.3"></circle>
  <circle className="star" cx="44.86%" cy="36.72%" r="1"></circle>
  <circle className="star" cx="23.79%" cy="64.61%" r="1.5"></circle>
  <circle className="star" cx="51.36%" cy="17.05%" r="0.5"></circle>
  <circle className="star" cx="21.72%" cy="6.91%" r="1.3"></circle>
  <circle className="star" cx="32.27%" cy="55.25%" r="0.9"></circle>
  <circle className="star" cx="5.47%" cy="41.28%" r="0.9"></circle>
  <circle className="star" cx="97.73%" cy="31.98%" r="1"></circle>
  <circle className="star" cx="85.63%" cy="71.95%" r="1.5"></circle>
  <circle className="star" cx="80.64%" cy="12.1%" r="0.9"></circle>
  <circle className="star" cx="39.3%" cy="68.71%" r="1"></circle>
  <circle className="star" cx="78.65%" cy="82.73%" r="1.2"></circle>
  <circle className="star" cx="50.55%" cy="99.85%" r="1"></circle>
  <circle className="star" cx="62.5%" cy="40.91%" r="1.5"></circle>
  <circle className="star" cx="81.96%" cy="88.59%" r="0.9"></circle>
  <circle className="star" cx="71.71%" cy="3.92%" r="0.8"></circle>
  <circle className="star" cx="64.79%" cy="22.09%" r="1.3"></circle>
  <circle className="star" cx="46.67%" cy="83.26%" r="0.9"></circle>
  <circle className="star" cx="15.65%" cy="54.07%" r="0.7"></circle>
  <circle className="star" cx="8.42%" cy="10.71%" r="1.4"></circle>
  <circle className="star" cx="40.95%" cy="57.93%" r="1"></circle>
  <circle className="star" cx="4.45%" cy="7.2%" r="1.2"></circle>
  <circle className="star" cx="2.39%" cy="80.1%" r="0.7"></circle>
  <circle className="star" cx="83.9%" cy="63.05%" r="0.6"></circle>
  <circle className="star" cx="14.27%" cy="91.42%" r="1.2"></circle>
  <circle className="star" cx="93.99%" cy="63.72%" r="1.2"></circle>
  <circle className="star" cx="15.32%" cy="87.09%" r="0.6"></circle>
  <circle className="star" cx="57.69%" cy="88.63%" r="1.2"></circle>
  <circle className="star" cx="70.84%" cy="2.02%" r="0.8"></circle>
  <circle className="star" cx="11.95%" cy="47.7%" r="0.9"></circle>
  <circle className="star" cx="68.91%" cy="25.71%" r="1.4"></circle>
  <circle className="star" cx="12.24%" cy="5.18%" r="0.9"></circle>
  <circle className="star" cx="43.4%" cy="5.87%" r="1"></circle>
  <circle className="star" cx="82.52%" cy="60.65%" r="0.8"></circle>
  <circle className="star" cx="94.26%" cy="0.71%" r="1.2"></circle>
  <circle className="star" cx="20.71%" cy="67.55%" r="1.1"></circle>
  <circle className="star" cx="18.73%" cy="88.6%" r="0.6"></circle>
  <circle className="star" cx="82.45%" cy="71.14%" r="1"></circle>
  <circle className="star" cx="47.54%" cy="12.92%" r="1.3"></circle>
  <circle className="star" cx="94.43%" cy="65.67%" r="0.9"></circle>
  <circle className="star" cx="78.81%" cy="99.83%" r="1.1"></circle>
  <circle className="star" cx="76.3%" cy="76.19%" r="1"></circle>
  <circle className="star" cx="38.2%" cy="52.9%" r="1"></circle>
  <circle className="star" cx="21.23%" cy="93.44%" r="1"></circle>
  <circle className="star" cx="23.3%" cy="19.23%" r="0.8"></circle>
  <circle className="star" cx="39.24%" cy="26.63%" r="1.1"></circle>
  <circle className="star" cx="53.34%" cy="84.15%" r="0.7"></circle>
  <circle className="star" cx="65.94%" cy="35.73%" r="1.4"></circle>
  <circle className="star" cx="73.12%" cy="7.02%" r="0.7"></circle>
  <circle className="star" cx="31.71%" cy="9.76%" r="1"></circle>
  <circle className="star" cx="76.44%" cy="57.73%" r="0.8"></circle>
  <circle className="star" cx="75.72%" cy="41.9%" r="1.4"></circle>
  <circle className="star" cx="62.41%" cy="78.64%" r="0.7"></circle>
  <circle className="star" cx="21.85%" cy="91.71%" r="1.4"></circle>
  <circle className="star" cx="91.48%" cy="17.2%" r="0.7"></circle>
  <circle className="star" cx="78.27%" cy="25.09%" r="0.8"></circle>
  <circle className="star" cx="18.93%" cy="74.79%" r="0.6"></circle>
  <circle className="star" cx="91.82%" cy="73.86%" r="0.6"></circle>
  <circle className="star" cx="48.9%" cy="71.49%" r="0.9"></circle>
  <circle className="star" cx="68.15%" cy="58.43%" r="0.7"></circle>
  <circle className="star" cx="2.82%" cy="91.05%" r="1.3"></circle>
  <circle className="star" cx="86.12%" cy="90.9%" r="1.3"></circle>
  <circle className="star" cx="10.87%" cy="84.12%" r="1"></circle>
  <circle className="star" cx="70.75%" cy="41.26%" r="0.6"></circle>
  <circle className="star" cx="50.69%" cy="58%" r="1.3"></circle>
  <circle className="star" cx="80.28%" cy="55.52%" r="1"></circle>
  <circle className="star" cx="68.26%" cy="95.11%" r="0.8"></circle>
  <circle className="star" cx="41.63%" cy="39.18%" r="1.2"></circle>
  <circle className="star" cx="37.28%" cy="22.15%" r="0.7"></circle>
  <circle className="star" cx="85.13%" cy="90.54%" r="1.2"></circle>
  <circle className="star" cx="89.37%" cy="72.13%" r="1.3"></circle>
  <circle className="star" cx="35.44%" cy="90.46%" r="1.4"></circle>
  <circle className="star" cx="7.54%" cy="55.06%" r="0.7"></circle>
  <circle className="star" cx="1.35%" cy="41.02%" r="1.1"></circle>
  <circle className="star" cx="12.31%" cy="50.35%" r="1.4"></circle>
  <circle className="star" cx="34.9%" cy="58.9%" r="1.5"></circle>
  <circle className="star" cx="11.07%" cy="23.07%" r="1.1"></circle>
  <circle className="star" cx="7.86%" cy="94.61%" r="1.4"></circle>
  <circle className="star" cx="25.64%" cy="76.39%" r="0.7"></circle>
  <circle className="star" cx="34.73%" cy="93.43%" r="1.4"></circle>
  <circle className="star" cx="42.3%" cy="8.79%" r="1"></circle>
  <circle className="star" cx="69.95%" cy="50.39%" r="1"></circle>
  <circle className="star" cx="63.41%" cy="23.6%" r="1.4"></circle>
  <circle className="star" cx="11.29%" cy="35.74%" r="1.2"></circle>
  <circle className="star" cx="45.35%" cy="46.64%" r="0.9"></circle>
  <circle className="star" cx="63.93%" cy="70.87%" r="1"></circle>
  <circle className="star" cx="33.31%" cy="4.1%" r="1.3"></circle>
  <circle className="star" cx="2.94%" cy="40.95%" r="0.8"></circle>
  <circle className="star" cx="53.68%" cy="33.6%" r="0.8"></circle>
  <circle className="star" cx="83.59%" cy="73.89%" r="1.3"></circle>
  <circle className="star" cx="76.95%" cy="68%" r="0.9"></circle>
  <circle className="star" cx="70.84%" cy="63.39%" r="0.8"></circle>
  <circle className="star" cx="31.75%" cy="10.66%" r="0.6"></circle>
  <circle className="star" cx="54.71%" cy="99.63%" r="1.1"></circle>
  <circle className="star" cx="49.59%" cy="76.55%" r="1.5"></circle>
  <circle className="star" cx="3.45%" cy="78.13%" r="0.7"></circle>
  <circle className="star" cx="23.69%" cy="44.58%" r="1.2"></circle>
  <circle className="star" cx="52.35%" cy="85.99%" r="1"></circle>
  <circle className="star" cx="91.56%" cy="17.38%" r="0.7"></circle>
  <circle className="star" cx="67.44%" cy="19.7%" r="1.2"></circle>
  <circle className="star" cx="42.91%" cy="45.75%" r="0.6"></circle>
  <circle className="star" cx="80.79%" cy="78.44%" r="1.1"></circle>
  <circle className="star" cx="5.62%" cy="62.25%" r="0.8"></circle>
  <circle className="star" cx="81.69%" cy="57.11%" r="0.7"></circle>
  <circle className="star" cx="87.2%" cy="80.72%" r="0.9"></circle>
  <circle className="star" cx="74.45%" cy="22.49%" r="0.8"></circle>
  <circle className="star" cx="90.18%" cy="72.54%" r="1.4"></circle>
  <circle className="star" cx="69.08%" cy="6.48%" r="0.9"></circle>
  <circle className="star" cx="96.86%" cy="57.85%" r="0.9"></circle>
  <circle className="star" cx="63.1%" cy="32.95%" r="1"></circle>
  <circle className="star" cx="47.26%" cy="9.93%" r="0.5"></circle>
  <circle className="star" cx="11.45%" cy="24.56%" r="1.5"></circle>
  <circle className="star" cx="10.35%" cy="21.43%" r="0.9"></circle>
  <circle className="star" cx="2.23%" cy="97.04%" r="1.1"></circle>
  <circle className="star" cx="55.38%" cy="57.79%" r="0.8"></circle>
  <circle className="star" cx="7.15%" cy="11.17%" r="0.9"></circle>
  <circle className="star" cx="11.4%" cy="3.38%" r="0.5"></circle>
  <circle className="star" cx="41.73%" cy="84.38%" r="0.8"></circle>
  <circle className="star" cx="41.18%" cy="99.8%" r="0.6"></circle>
  <circle className="star" cx="48.25%" cy="60.48%" r="1.2"></circle>
  <circle className="star" cx="61.4%" cy="97.54%" r="0.7"></circle>
  <circle className="star" cx="56.33%" cy="14.66%" r="0.9"></circle>
  <circle className="star" cx="56.8%" cy="26.55%" r="0.9"></circle>
  <circle className="star" cx="87.04%" cy="51.5%" r="1.5"></circle>
</svg>
